<svg width="30" height="30" viewBox="0 0 30 30" fill="none" xmlns="http://www.w3.org/2000/svg">
<g clip-path="url(#clip0_184_13)">
<path fill-rule="evenodd" clip-rule="evenodd" d="M13 2.6C7.25625 2.6 2.6 7.25625 2.6 13C2.6 18.7438 7.25625 23.4 13 23.4C18.7438 23.4 23.4 18.7438 23.4 13C23.4 7.25625 18.7438 2.6 13 2.6ZM0 13C0 5.82031 5.82031 0 13 0C20.1798 0 26 5.82031 26 13C26 20.1798 20.1798 26 13 26C5.82031 26 0 20.1798 0 13Z" fill="white"/>
<path d="M22.0008 20L29.5856 27.5848C30.1381 28.1373 30.1381 29.0331 29.5856 29.5856C29.0331 30.1381 28.1373 30.1381 27.5848 29.5856L20 22.0008L22.0008 20Z" fill="white"/>
</g>
<defs>
<clipPath id="clip0_184_13">
<rect width="30" height="30" fill="white"/>
</clipPath>
</defs>
</svg>
