<svg width="20" height="20" viewBox="0 0 20 20" fill="none" xmlns="http://www.w3.org/2000/svg">
<path fill-rule="evenodd" clip-rule="evenodd" d="M8.77528 2.89787C5.52937 2.89787 2.89803 5.52922 2.89803 8.77513C2.89803 12.0211 5.52937 14.6524 8.77528 14.6524C12.0212 14.6524 14.6526 12.0211 14.6526 8.77513C14.6526 5.52922 12.0212 2.89787 8.77528 2.89787ZM1.42871 8.77513C1.42871 4.71774 4.71789 1.42856 8.77528 1.42856C12.8327 1.42856 16.1219 4.71774 16.1219 8.77513C16.1219 12.8326 12.8327 16.1217 8.77528 16.1217C4.71789 16.1217 1.42871 12.8326 1.42871 8.77513Z" fill="black"/>
<path d="M14.1991 13.1062L18.345 17.2521C18.647 17.5541 18.647 18.0438 18.345 18.3458C18.043 18.6478 17.5534 18.6478 17.2514 18.3458L13.1055 14.1998L14.1991 13.1062Z" fill="black"/>
</svg>
