<svg width="30" height="30" viewBox="0 0 30 30" fill="none" xmlns="http://www.w3.org/2000/svg">
<g clip-path="url(#clip0_254_220)">
<path fill-rule="evenodd" clip-rule="evenodd" d="M15.4195 2.86983C15.1456 2.79501 14.8546 2.79501 14.5805 2.86983C14.5018 2.89137 14.3632 2.94525 14.0684 3.15455C13.7585 3.37467 13.379 3.68969 12.7877 4.18267L4.9283 10.735C3.96478 11.5383 3.69163 11.7806 3.50173 12.0485C3.31907 12.3062 3.18299 12.5904 3.09897 12.8896C3.01163 13.2008 3.00008 13.5531 3.00008 14.7623V21.798C3.00008 23.0234 3.00129 23.8564 3.05826 24.4999C3.11375 25.1266 3.21428 25.4466 3.33785 25.6695C3.62247 26.1835 4.06922 26.6026 4.61716 26.8695C4.85501 26.9854 5.19609 27.0796 5.86425 27.1317C6.55034 27.1852 7.43851 27.1863 8.74503 27.1863H9.00003V22.9657C9.00003 19.8578 11.6863 17.3383 15.0001 17.3383C18.3137 17.3383 21 19.8578 21 22.9657V27.1863H21.255C22.5615 27.1863 23.4496 27.1852 24.1357 27.1317C24.8038 27.0796 25.1449 26.9854 25.3828 26.8695C25.9308 26.6026 26.3775 26.1835 26.6622 25.6695C26.7858 25.4466 26.8863 25.1266 26.9418 24.4999C26.9986 23.8564 27 23.0234 27 21.798V14.7623C27 13.5531 26.9884 13.2008 26.901 12.8896C26.817 12.5904 26.6809 12.3062 26.4982 12.0485C26.3083 11.7806 26.0352 11.5383 25.0717 10.735L17.2122 4.18267C16.6209 3.68969 16.2414 3.37467 15.9316 3.15455C15.6368 2.94525 15.4982 2.89137 15.4195 2.86983ZM13.7417 0.168338C14.5636 -0.0561126 15.4364 -0.0561126 16.2582 0.168338C16.8284 0.324091 17.3012 0.597979 17.7423 0.911258C18.1578 1.2063 18.6258 1.59641 19.1646 2.04564L27.0648 8.63205C27.1074 8.6675 27.1492 8.70247 27.1908 8.737C27.9733 9.38868 28.5643 9.881 28.9966 10.4908C29.3618 11.0062 29.6341 11.5747 29.8021 12.1733C30.0008 12.8813 30.0005 13.6228 29.9999 14.6042C29.9999 14.6562 29.9999 14.7088 29.9999 14.7623V21.8571C29.9999 23.0086 29.9999 23.9591 29.9314 24.7329C29.8603 25.5366 29.7074 26.2751 29.3243 26.9667C28.7551 27.9945 27.8616 28.8324 26.7658 29.3664C26.0283 29.7257 25.2411 29.869 24.384 29.9357C23.559 30 22.5457 30 21.3179 30H20.7075C20.6958 30 20.6841 30 20.6721 30C20.4905 30 20.2736 30.0001 20.0825 29.9852C19.8609 29.9681 19.5438 29.9237 19.2128 29.7624C18.8018 29.5622 18.4667 29.2479 18.2532 28.8626C18.0813 28.5519 18.0341 28.2545 18.0156 28.0467C17.9997 27.8676 17.9999 27.6641 17.9999 27.4937L18 22.9657C18 21.4117 16.6568 20.152 15.0001 20.152C13.3432 20.152 12 21.4117 12 22.9657L12 27.4937C12.0001 27.6641 12.0002 27.8676 11.9843 28.0467C11.9659 28.2545 11.9187 28.5519 11.7467 28.8626C11.5332 29.2479 11.1982 29.5622 10.7872 29.7624C10.4561 29.9237 10.139 29.9681 9.9175 29.9852C9.72644 30.0001 9.50949 30 9.32781 30C9.3159 30 9.30412 30 9.29253 30H8.68208C7.45428 30 6.44096 30 5.61595 29.9357C4.75893 29.869 3.97168 29.7257 3.23423 29.3664C2.13838 28.8324 1.24487 27.9945 0.675622 26.9667C0.292555 26.2751 0.139751 25.5366 0.0685767 24.7329C7.22682e-05 23.9591 8.74387e-05 23.0086 0.000102439 21.8571V14.7623C0.000102439 14.7088 7.23777e-05 14.6562 5.73779e-05 14.6042C-0.000497618 13.6228 -0.000902735 12.8813 0.197876 12.1733C0.365919 11.5747 0.638092 11.0062 1.00343 10.4908C1.43561 9.881 2.02674 9.38868 2.80923 8.73701C2.85069 8.70247 2.89268 8.6675 2.93522 8.63205L10.8354 2.04565C11.3742 1.59641 11.8421 1.2063 12.2576 0.911258C12.6988 0.597979 13.1716 0.324091 13.7417 0.168338Z" fill="white"/>
</g>
<defs>
<clipPath id="clip0_254_220">
<rect width="30" height="30" fill="white"/>
</clipPath>
</defs>
</svg>
