<svg width="30" height="30" viewBox="0 0 30 30" fill="none" xmlns="http://www.w3.org/2000/svg">
<g clip-path="url(#clip0_303_35)">
<path fill-rule="evenodd" clip-rule="evenodd" d="M13.9284 18.2143C13.6442 18.2143 13.3717 18.3272 13.1707 18.5281C12.9698 18.729 12.8569 19.0016 12.8569 19.2857C12.8569 19.5699 12.9698 19.8424 13.1707 20.0433C13.3717 20.2443 13.6442 20.3572 13.9284 20.3572H24.6426C24.9268 20.3572 25.1993 20.2443 25.4003 20.0433C25.6012 19.8424 25.7141 19.5699 25.7141 19.2857C25.7141 19.0016 25.6012 18.729 25.4003 18.5281C25.1993 18.3272 24.9268 18.2143 24.6426 18.2143H13.9284Z" fill="white"/>
<path fill-rule="evenodd" clip-rule="evenodd" d="M13.9284 13.9286C13.6442 13.9286 13.3717 14.0414 13.1707 14.2424C12.9698 14.4433 12.8569 14.7158 12.8569 15C12.8569 15.2841 12.9698 15.5567 13.1707 15.7576C13.3717 15.9585 13.6442 16.0714 13.9284 16.0714H24.6426C24.9268 16.0714 25.1993 15.9585 25.4003 15.7576C25.6012 15.5567 25.7141 15.2841 25.7141 15C25.7141 14.7158 25.6012 14.4433 25.4003 14.2424C25.1993 14.0414 24.9268 13.9286 24.6426 13.9286H13.9284Z" fill="white"/>
<path fill-rule="evenodd" clip-rule="evenodd" d="M13.9284 22.5C13.6442 22.5 13.3717 22.6129 13.1707 22.8138C12.9698 23.0147 12.8569 23.2873 12.8569 23.5714C12.8569 23.8556 12.9698 24.1281 13.1707 24.329C13.3717 24.53 13.6442 24.6429 13.9284 24.6429H24.6426C24.9268 24.6429 25.1993 24.53 25.4003 24.329C25.6012 24.1281 25.7141 23.8556 25.7141 23.5714C25.7141 23.2873 25.6012 23.0147 25.4003 22.8138C25.1993 22.6129 24.9268 22.5 24.6426 22.5H13.9284Z" fill="white"/>
<path fill-rule="evenodd" clip-rule="evenodd" d="M3.21429 0C1.45211 0 0 1.45211 0 3.21429V18.2143C0 19.9765 1.45211 21.4286 3.21429 21.4286H4.28571V22.5C4.28571 24.2622 5.73782 25.7143 7.5 25.7143H8.57143V26.7857C8.57143 28.5479 10.0235 30 11.7857 30H26.7857C28.5479 30 30 28.5479 30 26.7857V11.7857C30 10.0235 28.5479 8.57143 26.7857 8.57143H25.7143V7.5C25.7143 5.73782 24.2622 4.28571 22.5 4.28571H21.4286V3.21429C21.4286 1.45211 19.9765 0 18.2143 0H3.21429ZM3.21429 2.14286H18.2143C18.8264 2.14286 19.2857 2.60219 19.2857 3.21429V4.28571H7.5C5.73782 4.28571 4.28571 5.73782 4.28571 7.5V19.2857H3.21429C2.60219 19.2857 2.14286 18.8264 2.14286 18.2143V3.21429C2.14286 2.60219 2.60219 2.14286 3.21429 2.14286ZM7.5 6.42857H22.5C23.1121 6.42857 23.5714 6.8879 23.5714 7.5V8.57143H11.7857C10.0235 8.57143 8.57143 10.0235 8.57143 11.7857V23.5714H7.5C6.8879 23.5714 6.42857 23.1121 6.42857 22.5V7.5C6.42857 6.8879 6.8879 6.42857 7.5 6.42857ZM11.7857 10.7143C16.7857 10.7143 21.7857 10.7143 26.7857 10.7143C27.3978 10.7143 27.8571 11.1736 27.8571 11.7857V26.7857C27.8571 27.3978 27.3978 27.8571 26.7857 27.8571H11.7857C11.1736 27.8571 10.7143 27.3978 10.7143 26.7857C10.7143 21.7857 10.7143 16.7857 10.7143 11.7857C10.7143 11.1736 11.1736 10.7143 11.7857 10.7143Z" fill="white"/>
</g>
<defs>
<clipPath id="clip0_303_35">
<rect width="30" height="30" fill="white"/>
</clipPath>
</defs>
</svg>
