<svg width="100" height="100" viewBox="0 0 100 100" fill="none" xmlns="http://www.w3.org/2000/svg">
<path d="M90.4509 79.3893C95.8709 71.9292 99.1224 63.1156 99.8459 53.923C100.569 44.7303 98.7366 35.5166 94.5503 27.3005C90.364 19.0844 83.9872 12.186 76.1249 7.36799C68.2626 2.54997 59.2211 6.96175e-07 50 0C40.7789 -6.96175e-07 31.7374 2.54997 23.8751 7.36799C16.0128 12.186 9.63598 19.0844 5.44968 27.3005C1.26338 35.5165 -0.569347 44.7303 0.154133 53.923C0.877612 63.1156 4.12911 71.9292 9.54915 79.3893L16.0227 74.6859C11.4701 68.4198 8.73895 61.0167 8.13126 53.2951C7.52356 45.5736 9.06298 37.8344 12.5793 30.9332C16.0957 24.032 21.452 18.2376 28.056 14.1906C34.66 10.1437 42.2546 8.00179 50 8.00179C57.7454 8.00179 65.34 10.1437 71.944 14.1906C78.548 18.2376 83.9043 24.032 87.4207 30.9332C90.937 37.8344 92.4764 45.5736 91.8687 53.2951C91.261 61.0167 88.5299 68.4198 83.9773 74.6859L90.4509 79.3893Z" fill="white"/>
<path d="M43.333 14C38.0287 14 32.9416 16.1071 29.1909 19.8579C25.4401 23.6086 23.333 28.6957 23.333 34C23.333 39.3043 25.4401 44.3914 29.1909 48.1421C32.9416 51.8929 38.0287 54 43.333 54L43.333 46C40.1504 46 37.0982 44.7357 34.8477 42.4853C32.5973 40.2348 31.333 37.1826 31.333 34C31.333 30.8174 32.5973 27.7652 34.8477 25.5147C37.0982 23.2643 40.1504 22 43.333 22V14Z" fill="white"/>
<path d="M56.667 86C61.9713 86 67.0584 83.8929 70.8091 80.1421C74.5599 76.3914 76.667 71.3043 76.667 66C76.667 60.6957 74.5599 55.6086 70.8091 51.8579C67.0584 48.1071 61.9713 46 56.667 46L56.667 54C59.8496 54 62.9018 55.2643 65.1523 57.5147C67.4027 59.7652 68.667 62.8174 68.667 66C68.667 69.1826 67.4027 72.2348 65.1523 74.4853C62.9018 76.7357 59.8496 78 56.667 78V86Z" fill="white"/>
<rect y="92" width="100" height="8" fill="white"/>
<rect x="46" y="8" width="8" height="84" fill="white"/>
<path d="M43.333 86C39.1094 86 34.9943 84.6629 31.5773 82.1803C28.1603 79.6978 25.617 76.1972 24.3119 72.1803L31.9203 69.7082C32.7034 72.1183 34.2294 74.2187 36.2796 75.7082C38.3298 77.1977 40.7989 78 43.333 78V86Z" fill="white"/>
<path d="M56.667 14C60.8906 14 65.0057 15.3371 68.4227 17.8197C71.8397 20.3022 74.383 23.8028 75.6881 27.8197L68.0797 30.2918C67.2966 27.8817 65.7706 25.7813 63.7204 24.2918C61.6702 22.8023 59.2011 22 56.667 22V14Z" fill="white"/>
</svg>
