<svg width="70" height="70" viewBox="0 0 70 70" fill="none" xmlns="http://www.w3.org/2000/svg">
<g clip-path="url(#clip0_256_292)">
<path d="M35 0C15.7005 0 0 15.6998 0 34.9946C0 54.2893 15.7005 70 35 70C54.2995 70 70 54.3001 70 35.0036C70 15.7071 54.2995 0 35 0ZM35 67.0889C17.294 67.0889 2.89077 52.6913 2.89077 34.9946C2.89077 17.2978 17.294 2.902 35 2.902C52.706 2.902 67.1092 17.2996 67.1092 34.9946C67.1092 52.6895 52.706 67.0889 35 67.0889ZM58.0503 48.2984C57.8581 48.6298 57.5431 48.8713 57.1741 48.9702C56.8051 49.0691 56.4121 49.0173 56.0809 48.8262L52.4675 46.7386C52.1352 46.5462 51.8926 46.2291 51.7932 45.8572C51.6937 45.4852 51.7455 45.0889 51.9372 44.7553C52.1289 44.4217 52.4447 44.1782 52.8152 44.0783C53.1857 43.9785 53.5806 44.0305 53.9129 44.2229L56.2454 45.5669C57.6555 42.7215 58.4795 39.6198 58.6682 36.4474H55.9906C55.6073 36.4474 55.2396 36.2945 54.9686 36.0224C54.6975 35.7503 54.5452 35.3812 54.5452 34.9964C54.5452 34.6115 54.6975 34.2425 54.9686 33.9704C55.2396 33.6982 55.6073 33.5454 55.9906 33.5454H58.6682C58.4768 30.3678 57.6432 27.2625 56.2183 24.4186L53.893 25.7607C53.6735 25.8887 53.4241 25.9557 53.1703 25.9548C52.8514 25.9556 52.5413 25.8506 52.2881 25.656C52.0348 25.4615 51.8528 25.1883 51.7704 24.8791C51.6879 24.5699 51.7096 24.242 51.8321 23.9464C51.9546 23.6509 52.171 23.4043 52.4476 23.2451L54.7602 21.912C52.9975 19.2604 50.7247 16.9893 48.0753 15.2319L46.7438 17.5499C46.5438 17.8657 46.2299 18.0918 45.8678 18.1808C45.5057 18.2698 45.1234 18.215 44.8006 18.0277C44.4779 17.8404 44.2397 17.5352 44.1358 17.1757C44.032 16.8163 44.0704 16.4305 44.2432 16.0989L45.5784 13.7863C42.7298 12.3593 39.6233 11.5252 36.4454 11.3341V14.0112C36.4454 14.3961 36.2931 14.7651 36.022 15.0373C35.751 15.3094 35.3833 15.4622 35 15.4622C34.6167 15.4622 34.249 15.3094 33.978 15.0373C33.7069 14.7651 33.5546 14.3961 33.5546 14.0112V11.3341C30.3764 11.5238 27.2692 12.3567 24.4198 13.7827L25.755 16.0989C25.8622 16.2639 25.9348 16.4492 25.9684 16.6434C26.0019 16.8376 25.9958 17.0366 25.9502 17.2283C25.9046 17.42 25.8206 17.6003 25.7034 17.7584C25.5861 17.9164 25.4379 18.0488 25.268 18.1475C25.0981 18.2462 24.9099 18.3091 24.715 18.3323C24.52 18.3556 24.3224 18.3388 24.1341 18.2829C23.9459 18.2269 23.771 18.1331 23.62 18.0071C23.4691 17.8811 23.3453 17.7255 23.2562 17.5499L21.9175 15.2319C19.2686 16.9891 16.9958 19.2595 15.2326 21.9101L17.5452 23.2451C17.7097 23.3403 17.8539 23.4672 17.9696 23.6184C18.0853 23.7697 18.1702 23.9423 18.2195 24.1265C18.2687 24.3107 18.2813 24.5028 18.2566 24.6918C18.2319 24.8809 18.1703 25.0632 18.0754 25.2284C17.9805 25.3936 17.8542 25.5384 17.7035 25.6545C17.5529 25.7707 17.3809 25.8559 17.1974 25.9053C17.014 25.9548 16.8226 25.9674 16.6343 25.9426C16.4459 25.9178 16.2643 25.856 16.0998 25.7607L13.7727 24.4186C12.3511 27.2626 11.5207 30.3672 11.3318 33.5436H14.0166C14.4 33.5436 14.7676 33.6964 15.0387 33.9685C15.3097 34.2407 15.462 34.6097 15.462 34.9946C15.462 35.3794 15.3097 35.7485 15.0387 36.0206C14.7676 36.2927 14.4 36.4456 14.0166 36.4456H11.3318C11.526 39.6226 12.3575 42.7276 13.7763 45.5742L16.107 44.2302C16.2716 44.1349 16.4532 44.0731 16.6415 44.0483C16.8298 44.0235 17.0212 44.0362 17.2047 44.0856C17.3881 44.135 17.5601 44.2202 17.7107 44.3364C17.8614 44.4525 17.9878 44.5973 18.0827 44.7625C18.1776 44.9277 18.2391 45.11 18.2639 45.2991C18.2886 45.4882 18.2759 45.6803 18.2267 45.8644C18.1775 46.0486 18.0926 46.2212 17.9769 46.3725C17.8612 46.5237 17.7169 46.6506 17.5524 46.7459L13.9389 48.8335C13.608 49.024 13.2154 49.0754 12.8468 48.9765C12.4783 48.8777 12.1636 48.6365 11.9714 48.3057C9.65066 44.2851 8.42266 39.723 8.41034 35.0762C8.41034 35.0508 8.41034 35.0272 8.41034 35.0018C8.41034 34.9764 8.41034 34.9583 8.41034 34.9365C8.40706 30.3388 9.60102 25.8201 11.8738 21.8285C11.8942 21.7819 11.9171 21.7365 11.9425 21.6925C11.9713 21.6427 12.0032 21.5948 12.0383 21.5492C14.3518 17.6205 17.6243 14.3483 21.5471 12.0415C21.5904 12.0086 21.6356 11.9783 21.6826 11.9508C21.7295 11.9241 21.7777 11.8999 21.8271 11.8783C25.8192 9.59547 30.3334 8.39239 34.9277 8.3868H35.0578C39.6521 8.39239 44.1663 9.59547 48.1584 11.8783C48.2078 11.8999 48.2561 11.9241 48.303 11.9508C48.3499 11.9783 48.3951 12.0086 48.4385 12.0415C52.3617 14.3477 55.6344 17.62 57.9473 21.5492C57.9823 21.5948 58.0143 21.6427 58.0431 21.6925C58.0683 21.7378 58.0918 21.7832 58.1117 21.8285C60.3934 25.8152 61.5973 30.3314 61.6041 34.9293C61.6041 34.951 61.6041 34.9728 61.6041 34.9964C61.6041 35.02 61.6041 35.0435 61.6041 35.0689C61.5917 39.7144 60.3644 44.2751 58.0449 48.2948L58.0503 48.2984ZM40.646 34.9909C40.6419 34.1226 40.439 33.2669 40.053 32.4898C39.6671 31.7127 39.1084 31.0351 38.42 30.5092C37.7317 29.9833 36.9322 29.6233 36.0833 29.4569C35.2344 29.2906 34.3587 29.3223 33.5239 29.5497L28.5446 20.9271C28.4542 20.7537 28.3298 20.6004 28.1789 20.4765C28.028 20.3526 27.8537 20.2606 27.6665 20.2061C27.4793 20.1516 27.283 20.1356 27.0895 20.1592C26.896 20.1828 26.7092 20.2455 26.5405 20.3434C26.3717 20.4414 26.2244 20.5726 26.1075 20.7291C25.9905 20.8857 25.9063 21.0644 25.8599 21.2545C25.8136 21.4445 25.806 21.6421 25.8376 21.8352C25.8692 22.0283 25.9395 22.2129 26.044 22.3781L31.0252 30.9989C30.2353 31.787 29.6967 32.7931 29.4777 33.8893C29.2587 34.9854 29.3692 36.1222 29.7952 37.1552C30.2212 38.1882 30.9434 39.0707 31.8702 39.6907C32.7969 40.3107 33.8863 40.6401 35 40.6371C35.4972 40.6367 35.9923 40.5708 36.4725 40.4413L37.4264 42.0954C37.6264 42.4112 37.9403 42.6373 38.3024 42.7263C38.6644 42.8154 39.0468 42.7605 39.3696 42.5732C39.6923 42.3859 39.9305 42.0807 40.0344 41.7213C40.1382 41.3618 40.0998 40.976 39.927 40.6444L38.9748 38.9921C39.5024 38.4687 39.9217 37.8458 40.2085 37.1591C40.4953 36.4724 40.644 35.7355 40.646 34.9909ZM32.2574 34.9909C32.2591 34.5096 32.3867 34.0371 32.6273 33.6208C32.868 33.2045 33.2133 32.8589 33.6287 32.6185C34.1497 32.3192 34.7545 32.2008 35.3494 32.2816C35.9443 32.3623 36.4961 32.6378 36.9192 33.0654C37.3423 33.4929 37.6131 34.0486 37.6896 34.6463C37.7662 35.2441 37.6442 35.8505 37.3426 36.3715C37.041 36.8926 36.5767 37.2993 36.0215 37.5285C35.4663 37.7577 34.8513 37.7967 34.2717 37.6395C33.6922 37.4822 33.1806 37.1374 32.8161 36.6586C32.4516 36.1797 32.2546 35.5936 32.2556 34.9909H32.2574ZM43.3887 50.3172H26.6113C26.228 50.3172 25.8604 50.47 25.5893 50.7421C25.3182 51.0143 25.166 51.3833 25.166 51.7682V60.1531C25.166 60.538 25.3182 60.907 25.5893 61.1791C25.8604 61.4513 26.228 61.6041 26.6113 61.6041H43.3887C43.772 61.6041 44.1396 61.4513 44.4107 61.1791C44.6818 60.907 44.834 60.538 44.834 60.1531V51.7682C44.834 51.3833 44.6818 51.0143 44.4107 50.7421C44.1396 50.47 43.772 50.3172 43.3887 50.3172ZM41.9433 58.7021H28.0567V53.2192H41.9433V58.7021Z" fill="white"/>
</g>
<defs>
<clipPath id="clip0_256_292">
<rect width="70" height="70" fill="white"/>
</clipPath>
</defs>
</svg>
