<svg width="30" height="30" viewBox="0 0 30 30" fill="none" xmlns="http://www.w3.org/2000/svg">
<g clip-path="url(#clip0_184_34)">
<path d="M8.38535 25.4293C8.66133 25.4293 8.8853 25.1375 8.8853 24.7753V14.6403C8.8853 14.2778 8.66118 13.9863 8.38535 13.9863C8.10889 13.9863 7.88477 14.2787 7.88477 14.6403V24.7743C7.88477 25.1369 8.10952 25.4293 8.38535 25.4293Z" fill="white"/>
<path d="M12.8057 25.4293C13.0827 25.4293 13.3062 25.1375 13.3062 24.7753V14.6403C13.3062 14.2778 13.0827 13.9863 12.8057 13.9863C12.5303 13.9863 12.3057 14.2787 12.3057 14.6403V24.7743C12.3051 25.1369 12.5303 25.4293 12.8057 25.4293Z" fill="white"/>
<path d="M17.1748 25.4293C17.4501 25.4293 17.6747 25.1375 17.6747 24.7753V14.6403C17.6747 14.2778 17.4501 13.9863 17.1748 13.9863C16.8977 13.9863 16.6748 14.2787 16.6748 14.6403V24.7743C16.6746 25.1369 16.8977 25.4293 17.1748 25.4293Z" fill="white"/>
<path d="M21.4912 25.4293C21.7682 25.4293 21.9911 25.1375 21.9911 24.7753V14.6403C21.9911 14.2778 21.7681 13.9863 21.4912 13.9863C21.2158 13.9863 20.9912 14.2787 20.9912 14.6403V24.7743C20.9906 25.1369 21.2153 25.4293 21.4912 25.4293Z" fill="white"/>
<path d="M29.9998 5.89023H27.6934L29.2987 3.79098C29.6793 3.29001 29.6793 2.47997 29.2987 1.98348L28.0584 0.36198C27.6899 -0.12066 27.0479 -0.12066 26.6766 0.36198L22.451 5.89023H7.66034L3.4341 0.36198C3.06342 -0.12066 2.42361 -0.12066 2.05121 0.36198L0.81441 1.98144C0.43376 2.47936 0.432514 3.29021 0.813787 3.79037L2.41971 5.88941H0V12.0985H2.11585L5.0338 30H24.1255L27.8768 12.0985H30C29.9998 12.0987 29.9998 5.89023 29.9998 5.89023ZM23.3623 28.692H5.84322L3.14425 12.1336H26.8338L23.3623 28.692ZM28.9988 10.7906H1.00115V7.199H4.83491L1.52166 2.9074L2.72732 1.28794L7.24667 7.19818H22.865L27.3526 1.28794L28.5906 2.86421L25.2769 7.1988H28.9993V10.7904H28.9988V10.7906Z" fill="white"/>
</g>
<defs>
<clipPath id="clip0_184_34">
<rect width="30" height="30" fill="white"/>
</clipPath>
</defs>
</svg>
