<svg width="40" height="40" viewBox="0 0 40 40" fill="none" xmlns="http://www.w3.org/2000/svg">
<path d="M11.604 31.3734V27.9156C10.582 27.603 9.58773 27.2341 8.67188 26.8361V31.9766C8.67188 34.3692 11.5825 36.7619 11.5825 36.7619L13.578 34.5682C11.9805 33.773 11.604 31.3734 11.604 31.3734Z" fill="white"/>
<path d="M28.3953 31.3734C28.3953 31.3734 28.0188 33.773 26.4214 34.5683L28.4161 36.7619C28.4161 36.7619 31.3274 34.3693 31.3274 31.9766V26.8362C30.4115 27.2411 29.4104 27.603 28.3953 27.9227V31.3734Z" fill="white"/>
<path d="M24.4379 35.9084C23.5129 34.0073 21.8136 33.2807 20.0005 34.1203C18.1868 33.2807 16.4874 34.0073 15.5625 35.9084C14.4975 38.0973 12.0723 38.3836 12.0723 38.3836C12.0723 38.3836 12.6048 40.4948 15.6221 39.8916C17.5232 39.5116 18.7899 37.9953 20.0005 36.9248C21.2104 37.9952 22.4771 39.5116 24.3783 39.8916C27.3956 40.4948 27.9281 38.3836 27.9281 38.3836C27.9281 38.3836 25.5028 38.0973 24.4379 35.9084Z" fill="white"/>
<path d="M31.1478 16.5901C31.1478 16.5901 31.4987 17.6959 30.0198 19.301C30.3554 15.2706 30.5183 8.01008 31.3662 4.58641C32.1413 1.45875 24.9855 0 19.9998 0C15.0147 0 7.85944 1.45875 8.6346 4.58641C9.48249 8.01 9.64476 15.2706 9.98038 19.301C8.5021 17.6959 8.85226 16.5901 8.85226 16.5901C4.00179 13.6045 0.829054 20.2287 7.15913 24.7409C10.0642 26.8133 16.6744 28.3982 19.791 28.5369V28.548C19.8569 28.548 19.929 28.5466 19.9998 28.5445C20.0718 28.5466 20.1432 28.548 20.2098 28.548V28.5369C23.3256 28.3982 29.9359 26.8133 32.8417 24.7409C39.1711 20.2287 35.9991 13.6045 31.1478 16.5901Z" fill="white"/>
</svg>
