<svg width="122" height="39" viewBox="0 0 122 39" fill="none" xmlns="http://www.w3.org/2000/svg">
<path d="M33.99 17.45H44.07V21.35H33.99V17.45ZM34.35 29H29.49V8H45.36V11.9H34.35V29ZM57.7514 29V25.85L57.4514 25.16V19.52C57.4514 18.52 57.1414 17.74 56.5214 17.18C55.9214 16.62 54.9914 16.34 53.7314 16.34C52.8714 16.34 52.0214 16.48 51.1814 16.76C50.3614 17.02 49.6614 17.38 49.0814 17.84L47.4014 14.57C48.2814 13.95 49.3414 13.47 50.5814 13.13C51.8214 12.79 53.0814 12.62 54.3614 12.62C56.8214 12.62 58.7314 13.2 60.0914 14.36C61.4514 15.52 62.1314 17.33 62.1314 19.79V29H57.7514ZM52.8314 29.24C51.5714 29.24 50.4914 29.03 49.5914 28.61C48.6914 28.17 48.0014 27.58 47.5214 26.84C47.0414 26.1 46.8014 25.27 46.8014 24.35C46.8014 23.39 47.0314 22.55 47.4914 21.83C47.9714 21.11 48.7214 20.55 49.7414 20.15C50.7614 19.73 52.0914 19.52 53.7314 19.52H58.0214V22.25H54.2414C53.1414 22.25 52.3814 22.43 51.9614 22.79C51.5614 23.15 51.3614 23.6 51.3614 24.14C51.3614 24.74 51.5914 25.22 52.0514 25.58C52.5314 25.92 53.1814 26.09 54.0014 26.09C54.7814 26.09 55.4814 25.91 56.1014 25.55C56.7214 25.17 57.1714 24.62 57.4514 23.9L58.1714 26.06C57.8314 27.1 57.2114 27.89 56.3114 28.43C55.4114 28.97 54.2514 29.24 52.8314 29.24ZM70.237 25.7L70.357 20L77.887 12.86H83.467L76.237 20.21L73.807 22.19L70.237 25.7ZM66.367 29V6.74H71.047V29H66.367ZM78.397 29L72.937 22.22L75.877 18.59L84.067 29H78.397ZM93.5079 29.24C91.6679 29.24 90.0479 28.88 88.6479 28.16C87.2679 27.44 86.1979 26.46 85.4379 25.22C84.6779 23.96 84.2979 22.53 84.2979 20.93C84.2979 19.31 84.6679 17.88 85.4079 16.64C86.1679 15.38 87.1979 14.4 88.4979 13.7C89.7979 12.98 91.2679 12.62 92.9079 12.62C94.4879 12.62 95.9079 12.96 97.1679 13.64C98.4479 14.3 99.4579 15.26 100.198 16.52C100.938 17.76 101.308 19.25 101.308 20.99C101.308 21.17 101.298 21.38 101.278 21.62C101.258 21.84 101.238 22.05 101.218 22.25H88.1079V19.52H98.7579L96.9579 20.33C96.9579 19.49 96.7879 18.76 96.4479 18.14C96.1079 17.52 95.6379 17.04 95.0379 16.7C94.4379 16.34 93.7379 16.16 92.9379 16.16C92.1379 16.16 91.4279 16.34 90.8079 16.7C90.2079 17.04 89.7379 17.53 89.3979 18.17C89.0579 18.79 88.8879 19.53 88.8879 20.39V21.11C88.8879 21.99 89.0779 22.77 89.4579 23.45C89.8579 24.11 90.4079 24.62 91.1079 24.98C91.8279 25.32 92.6679 25.49 93.6279 25.49C94.4879 25.49 95.2379 25.36 95.8779 25.1C96.5379 24.84 97.1379 24.45 97.6779 23.93L100.168 26.63C99.4279 27.47 98.4979 28.12 97.3779 28.58C96.2579 29.02 94.9679 29.24 93.5079 29.24ZM111.654 29.36C109.974 29.36 108.364 29.14 106.824 28.7C105.284 28.24 104.044 27.65 103.104 26.93L104.754 23.27C105.654 23.91 106.714 24.44 107.934 24.86C109.174 25.26 110.424 25.46 111.684 25.46C112.644 25.46 113.414 25.37 113.994 25.19C114.594 24.99 115.034 24.72 115.314 24.38C115.594 24.04 115.734 23.65 115.734 23.21C115.734 22.65 115.514 22.21 115.074 21.89C114.634 21.55 114.054 21.28 113.334 21.08C112.614 20.86 111.814 20.66 110.934 20.48C110.074 20.28 109.204 20.04 108.324 19.76C107.464 19.48 106.674 19.12 105.954 18.68C105.234 18.24 104.644 17.66 104.184 16.94C103.744 16.22 103.524 15.3 103.524 14.18C103.524 12.98 103.844 11.89 104.484 10.91C105.144 9.91 106.124 9.12 107.424 8.54C108.744 7.94 110.394 7.64 112.374 7.64C113.694 7.64 114.994 7.8 116.274 8.12C117.554 8.42 118.684 8.88 119.664 9.5L118.164 13.19C117.184 12.63 116.204 12.22 115.224 11.96C114.244 11.68 113.284 11.54 112.344 11.54C111.404 11.54 110.634 11.65 110.034 11.87C109.434 12.09 109.004 12.38 108.744 12.74C108.484 13.08 108.354 13.48 108.354 13.94C108.354 14.48 108.574 14.92 109.014 15.26C109.454 15.58 110.034 15.84 110.754 16.04C111.474 16.24 112.264 16.44 113.124 16.64C114.004 16.84 114.874 17.07 115.734 17.33C116.614 17.59 117.414 17.94 118.134 18.38C118.854 18.82 119.434 19.4 119.874 20.12C120.334 20.84 120.564 21.75 120.564 22.85C120.564 24.03 120.234 25.11 119.574 26.09C118.914 27.07 117.924 27.86 116.604 28.46C115.304 29.06 113.654 29.36 111.654 29.36Z" fill="white"/>
<g clip-path="url(#clip0_184_63)">
<path d="M29.5 8.00269C29.1927 8.00269 29.2655 8.0027 29 8.00269L27.0434 10.0027H15.4015L0.766029 24.7587C0.433018 25.0917 0.249512 25.5352 0.249512 26.0063C0.249512 26.4773 0.433018 26.9208 0.766029 27.2538L10.9994 37.4871C11.3429 37.8307 11.7934 38.0027 12.2449 38.0027C12.6984 38.0027 13.1519 37.8292 13.4995 37.4821L27.7504 22.8462V10.7098L29.5 9.00269C29.5 8.50269 29.5 8.50269 29.5 8.00269ZM26.7504 22.4401L12.7874 36.7801C12.4894 37.0781 12.0044 37.0781 11.7064 36.7801L1.47305 26.5468C1.17504 26.2488 1.17504 25.7638 1.47455 25.4642L15.8185 11.0028H26.0434L23.6268 13.4193C23.2313 13.1573 22.7588 13.0028 22.2502 13.0028C20.8717 13.0028 19.7502 14.1244 19.7502 15.5029C19.7502 16.8815 20.8717 18.003 22.2502 18.003C23.6288 18.003 24.7503 16.8815 24.7503 15.5029C24.7503 14.9944 24.5958 14.5219 24.3338 14.1264L26.7504 11.7098V22.4401ZM23.7503 15.5029C23.7503 16.3299 23.0773 17.003 22.2502 17.003C21.4232 17.003 20.7502 16.3299 20.7502 15.5029C20.7502 14.6759 21.4232 14.0029 22.2502 14.0029C22.4813 14.0029 22.6973 14.0599 22.8928 14.1534L21.8967 15.1494C21.7012 15.3449 21.7012 15.6609 21.8967 15.8564C21.9942 15.9539 22.1222 16.0029 22.2502 16.0029C22.3783 16.0029 22.5063 15.9539 22.6038 15.8564L23.5998 14.8604C23.6938 15.0559 23.7503 15.2719 23.7503 15.5029Z" fill="white"/>
<path d="M21.1237 23.6437L15.8205 28.9474C15.625 29.1429 15.625 29.4589 15.8205 29.6544C15.918 29.7519 16.046 29.8009 16.174 29.8009C16.302 29.8009 16.43 29.7519 16.5275 29.6544L21.8307 24.3507C22.0262 24.1552 22.0262 23.8392 21.8307 23.6437C21.6352 23.4482 21.3192 23.4487 21.1237 23.6437Z" fill="white"/>
<path d="M22.8903 21.8731C22.7998 21.9676 22.7453 22.0976 22.7453 22.2281C22.7453 22.3631 22.7998 22.4927 22.8903 22.5832C22.9848 22.6777 23.1148 22.7282 23.2453 22.7282C23.3753 22.7282 23.5053 22.6777 23.5948 22.5832C23.6898 22.4927 23.7453 22.3631 23.7453 22.2281C23.7453 22.0976 23.6903 21.9676 23.5948 21.8731C23.4098 21.6881 23.0803 21.6881 22.8903 21.8731Z" fill="white"/>
<path d="M18.6486 17.633C18.8441 17.4375 18.8441 17.1215 18.6486 16.926C18.4531 16.7305 18.1371 16.7305 17.9416 16.926L12.6379 22.2296C12.4424 22.4251 12.4424 22.7412 12.6379 22.9367C12.7354 23.0342 12.8634 23.0832 12.9914 23.0832C13.1194 23.0832 13.2475 23.0342 13.345 22.9367L18.6486 17.633Z" fill="white"/>
<path d="M16.8811 23.6437C16.9786 23.7412 17.1066 23.7902 17.2346 23.7902C17.3626 23.7902 17.4906 23.7412 17.5881 23.6437L21.1237 20.1081C21.3192 19.9126 21.3192 19.5966 21.1237 19.4011C20.9282 19.2055 20.6122 19.2055 20.4167 19.4011L16.8811 22.9367C16.6856 23.1322 16.6856 23.4487 16.8811 23.6437Z" fill="white"/>
<path d="M14.0525 25.7648L13.3455 26.4718C13.1499 26.6673 13.1499 26.9833 13.3455 27.1788C13.443 27.2763 13.571 27.3253 13.699 27.3253C13.827 27.3253 13.955 27.2763 14.0525 27.1788L14.7595 26.4718C14.955 26.2763 14.955 25.9603 14.7595 25.7648C14.564 25.5693 14.2475 25.5698 14.0525 25.7648Z" fill="white"/>
<path d="M8.7488 22.3757C8.8768 22.3757 9.00481 22.3267 9.10231 22.2292L14.4055 16.926C14.601 16.7305 14.601 16.4145 14.4055 16.219C14.21 16.0235 13.894 16.0235 13.6985 16.219L8.39529 21.5221C8.19978 21.7176 8.19978 22.0337 8.39529 22.2292C8.49279 22.3267 8.62079 22.3757 8.7488 22.3757Z" fill="white"/>
<path d="M15.82 15.3029C15.95 15.3029 16.0805 15.2529 16.175 15.1579C16.2655 15.0634 16.32 14.9384 16.32 14.8029C16.32 14.6729 16.2655 14.5429 16.17 14.4479C15.985 14.2629 15.655 14.2629 15.465 14.4529C15.375 14.5434 15.32 14.6729 15.32 14.8029C15.32 14.9329 15.375 15.0634 15.465 15.1579C15.56 15.2529 15.69 15.3029 15.82 15.3029Z" fill="white"/>
<path d="M11.2249 23.6432C11.1299 23.7377 11.0799 23.8627 11.0799 23.9982C11.0799 24.1332 11.1299 24.2582 11.2249 24.3477C11.3149 24.4427 11.4444 24.4982 11.5799 24.4982C11.7099 24.4982 11.8399 24.4432 11.9294 24.3532C12.0244 24.2582 12.0799 24.1282 12.0799 23.9982C12.0799 23.8677 12.0249 23.7377 11.9294 23.6432C11.7449 23.4582 11.4094 23.4582 11.2249 23.6432Z" fill="white"/>
<path d="M16.175 25.0577C16.2655 24.9677 16.32 24.8382 16.32 24.7027C16.32 24.5727 16.2655 24.4427 16.175 24.3477C15.985 24.1627 15.655 24.1627 15.465 24.3477C15.375 24.4427 15.32 24.5727 15.32 24.7027C15.32 24.8382 15.375 24.9632 15.465 25.0577C15.56 25.1527 15.69 25.2027 15.82 25.2027C15.95 25.2027 16.08 25.1532 16.175 25.0577Z" fill="white"/>
<path d="M12.3259 31.817C12.6334 31.3524 12.7804 30.7964 12.7329 30.2309C12.6939 29.7589 12.4664 29.3324 12.0929 29.0294C11.7104 28.7198 11.2084 28.5778 10.7239 28.6388L9.32283 28.8139L7.39977 26.8908C7.95678 26.6263 8.64231 26.7188 9.10282 27.1793C9.29833 27.3748 9.61434 27.3748 9.80984 27.1793C10.0054 26.9838 10.0054 26.6678 9.80984 26.4723C8.95632 25.6187 7.63377 25.5132 6.66324 26.1548L6.27373 25.7653C6.07822 25.5697 5.76221 25.5697 5.5667 25.7653C5.3712 25.9608 5.3712 26.2768 5.5667 26.4723L5.95722 26.8628C5.65021 27.3268 5.5032 27.8833 5.5507 28.4488C5.5897 28.9204 5.81721 29.3474 6.19022 29.6499C6.57274 29.9594 7.07175 30.1019 7.55977 30.0414L8.96082 29.8664L10.8789 31.7845C10.3234 32.035 9.62384 31.9435 9.18082 31.5004C8.98532 31.3049 8.66931 31.3049 8.4738 31.5004C8.27829 31.6954 8.27829 32.012 8.4738 32.2075C8.94532 32.6795 9.57334 32.94 10.2414 32.94C10.7394 32.94 11.2144 32.7945 11.6199 32.5255L11.9309 32.8365C12.0284 32.934 12.1564 32.983 12.2844 32.983C12.4124 32.983 12.5404 32.934 12.6379 32.8365C12.8334 32.641 12.8334 32.325 12.6379 32.1295L12.3259 31.817ZM7.43577 29.0494C7.21676 29.0764 6.99125 29.0134 6.82025 28.8734C6.66074 28.7434 6.56324 28.5633 6.54674 28.3653C6.52474 28.0973 6.58174 27.8358 6.69424 27.5993L8.06529 28.9704L7.43577 29.0494ZM10.8479 29.6309C11.0644 29.6014 11.2909 29.6669 11.4624 29.8064C11.6224 29.9364 11.7199 30.1164 11.7364 30.3144C11.7584 30.5824 11.7014 30.8439 11.5884 31.0804L10.2179 29.7099L10.8479 29.6309Z" fill="white"/>
</g>
<defs>
<clipPath id="clip0_184_63">
<rect width="30" height="30" fill="white" transform="translate(0 8.00269)"/>
</clipPath>
</defs>
</svg>
