<svg width="30" height="30" viewBox="0 0 30 30" fill="none" xmlns="http://www.w3.org/2000/svg">
<g clip-path="url(#clip0_254_213)">
<path fill-rule="evenodd" clip-rule="evenodd" d="M13.4398 0C10.8549 0 8.75933 2.01472 8.75933 4.5V6.00057C7.81517 6.00328 6.98251 6.01855 6.28275 6.10353C5.36364 6.21516 4.48009 6.4654 3.71849 7.10046C2.95689 7.73553 2.57426 8.54109 2.32937 9.40008C2.10191 10.1978 1.95331 11.1984 1.78222 12.3502L1.76899 12.4393L0.415939 21.5454C0.192602 23.0479 0.00194989 24.3306 1.52884e-05 25.3629C-0.00204412 26.4618 0.203289 27.5425 1.02045 28.4484C1.83763 29.3542 2.92142 29.7025 4.05317 29.856C5.1163 30.0001 6.46398 30.0001 8.04266 30H21.9574C23.5361 30.0001 24.8837 30.0001 25.9468 29.856C27.0786 29.7025 28.1624 29.3542 28.9796 28.4484C29.7968 27.5425 30.0022 26.4618 30 25.3629C29.9981 24.3306 29.8075 23.0479 29.584 21.5452L28.2178 12.3502C28.0468 11.1984 27.8981 10.1978 27.6707 9.40008C27.4259 8.54109 27.0432 7.73553 26.2817 7.10046C25.52 6.4654 24.6365 6.21516 23.7174 6.10353C23.0175 6.01855 22.1848 6.00328 21.2406 6.00057V4.5C21.2406 2.01472 19.1452 0 16.5601 0H13.4398ZM18.1203 6V4.5C18.1203 3.67158 17.4218 3 16.5601 3H13.4398C12.5781 3 11.8797 3.67158 11.8797 4.5V6H18.1203ZM10.3195 9C11.1811 9 11.8797 9.67158 11.8797 10.5V13.5C11.8797 14.3284 11.1811 15 10.3195 15C9.45785 15 8.75933 14.3284 8.75933 13.5V10.5C8.75933 9.67158 9.45785 9 10.3195 9ZM21.2406 10.5C21.2406 9.67158 20.5421 9 19.6805 9C18.8188 9 18.1203 9.67158 18.1203 10.5V13.5C18.1203 14.3284 18.8188 15 19.6805 15C20.5421 15 21.2406 14.3284 21.2406 13.5V10.5Z" fill="white"/>
</g>
<defs>
<clipPath id="clip0_254_213">
<rect width="30" height="30" fill="white"/>
</clipPath>
</defs>
</svg>
